<svg xmlns="http://www.w3.org/2000/svg" width="16" height="16" viewBox="0 0 24 24"><g class="nc-icon-wrapper" fill="#111111"><path d="M14.507,15.487l-2.334,2.3A18.934,18.934,0,0,1,8.8,15.2a19.147,19.147,0,0,1-2.588-3.37l2.3-2.334A1,1,0,0,0,8.72,8.4l-2.4-5.59A1,1,0,0,0,5.15,2.237L.75,3.4A1,1,0,0,0,0,4.4,21.14,21.14,0,0,0,5.985,18.016,21.136,21.136,0,0,0,19.606,24a1,1,0,0,0,1-.749l1.162-4.4a1,1,0,0,0-.572-1.175l-5.59-2.4A1,1,0,0,0,14.507,15.487Z" fill="#111111"/><path data-color="color-2" d="M24,10H22a8.009,8.009,0,0,0-8-8V0A10.011,10.011,0,0,1,24,10Z"/><path data-color="color-2" d="M20,10H18a4,4,0,0,0-4-4V4A6.006,6.006,0,0,1,20,10Z"/></g></svg>