<svg xmlns="http://www.w3.org/2000/svg" xmlns:xlink="http://www.w3.org/1999/xlink" version="1.1" x="0px" y="0px" viewBox="0 0 100.0 100"><path d="M50,0 l1100,0 c50,0,50,0,50,50 l0,1100 c0,50,0,50,-50,50 l-1100,0 c-50,0,-50,0,-50,-50 l0,-1100 c0,-50,0,-50,50,-50 Z M600,296 c-48,0,-89,33,-89,97 c0,54,89,182,89,182 c0,0,89,-128,89,-182 c0,-64,-44,-97,-89,-97 Z M100,100 l0,1000 l1000,0 l0,-1000 Z M599,200 c140,0,246,111,246,261 c0,154,-246,539,-246,539 c0,0,-245,-385,-245,-539 c0,-150,105,-261,245,-261 Z M599,200 " fill="#000000" stroke="none" stroke-dasharray="none" stroke-linecap="inherit" stroke-linejoin="inherit" stroke-width="1" transform="matrix(0.05,0.0,0.0,-0.05,20.0,80.0)"></path></svg>