<svg xmlns="http://www.w3.org/2000/svg" xmlns:xlink="http://www.w3.org/1999/xlink" version="1.1" x="0px" y="0px" viewBox="0 0 100.0 100"><path d="M50,0 l1100,0 c50,0,50,0,50,50 l0,1100 c0,50,0,50,-50,50 l-1100,0 c-50,0,-50,0,-50,-50 l0,-1100 c0,-50,0,-50,50,-50 Z M250,200 l700,0 c50,0,50,0,50,50 c0,50,0,50,-50,50 l-700,0 c-50,0,-50,0,-50,-50 c0,-50,0,-50,50,-50 Z M100,100 l0,1000 l1000,0 l0,-1000 Z M100,100 " fill="#000000" stroke="none" stroke-dasharray="none" stroke-linecap="inherit" stroke-linejoin="inherit" stroke-width="1" transform="matrix(0.05,0.0,0.0,-0.05,20.0,80.0)"></path></svg>