<svg xmlns="http://www.w3.org/2000/svg" xmlns:xlink="http://www.w3.org/1999/xlink" version="1.1" x="0px" y="0px" viewBox="0 0 100.0 100"><path d="M50,0 l1100,0 c50,0,50,0,50,50 l0,1100 c0,50,0,50,-50,50 l-1100,0 c-50,0,-50,0,-50,-50 l0,-1100 c0,-50,0,-50,50,-50 Z M250,200 l700,0 c50,0,50,0,50,50 c0,50,0,50,-50,50 l-700,0 c-50,0,-50,0,-50,-50 c0,-50,0,-50,50,-50 Z M100,100 l0,1000 l1000,0 l0,-1000 Z M600,375 c77,0,113,41,113,93 c0,41,-22,90,-64,132 l176,0 c0,77,-40,113,-93,113 c-41,0,-90,-22,-132,-64 l0,176 c-76,0,-113,-40,-113,-93 c0,-41,22,-90,64,-132 l-176,0 c0,-76,41,-113,93,-113 c41,0,90,22,132,64 Z M250,900 l700,0 c50,0,50,0,50,50 c0,50,0,50,-50,50 l-700,0 c-50,0,-50,0,-50,-50 c0,-50,0,-50,50,-50 Z M250,900 " fill="#000000" stroke="none" stroke-dasharray="none" stroke-linecap="inherit" stroke-linejoin="inherit" stroke-width="1" transform="matrix(0.05,0.0,0.0,-0.05,20.0,80.0)"></path></svg>