<svg xmlns="http://www.w3.org/2000/svg" xmlns:xlink="http://www.w3.org/1999/xlink" version="1.1" x="0px" y="0px" viewBox="0 0 100.0 100"><path d="M50,0 l1100,0 c50,0,50,0,50,50 l0,1100 c0,50,0,50,-50,50 l-1100,0 c-50,0,-50,0,-50,-50 l0,-1100 c0,-50,0,-50,50,-50 Z M600,325 c55,0,100,45,100,100 c0,139,-200,139,-200,0 c0,-55,45,-100,100,-100 Z M100,100 l0,1000 l1000,0 l0,-1000 Z M600,200 c123,0,225,102,225,225 c0,61,-24,116,-62,156 l0,250 c0,112,-81,169,-163,169 c-82,0,-163,-57,-163,-169 l0,-249 c-38,-40,-62,-96,-62,-157 c0,-123,102,-225,225,-225 Z M600,275 c-82,0,-150,68,-150,150 c0,50,23,94,62,123 l0,283 c0,58,33,94,88,94 c55,0,88,-36,88,-94 l0,-284 c40,-30,62,-73,62,-122 c0,-82,-67,-150,-150,-150 Z M638,503 l0,158 c0,48,-75,47,-75,0 l0,-156 Z M638,503 " fill="#000000" stroke="none" stroke-dasharray="none" stroke-linecap="inherit" stroke-linejoin="inherit" stroke-width="1" transform="matrix(0.05,0.0,0.0,-0.05,20.0,80.0)"></path></svg>